<svg width="1924" height="1285" viewBox="0 0 1924 1285" fill="none" xmlns="http://www.w3.org/2000/svg">
<path d="M1 1284.4C641.676 1281.68 1282.5 1280.47 1923.18 1284.4" stroke="url(#paint0_linear_121_1830)" stroke-miterlimit="10"/>
<path d="M1 1258.82C186.478 1246.41 374.8 1242.18 560.534 1251.98C636.396 1255.98 712.463 1257.95 788.351 1253.75C871.107 1249.16 949.891 1230.84 1031.55 1219.66C1176.76 1199.76 1324 1246.51 1468.6 1254.31C1620.91 1262.54 1770.48 1241.15 1923.18 1260.65" stroke="url(#paint1_linear_121_1830)" stroke-miterlimit="10"/>
<path d="M1 1230.25C193.654 1208.94 393.33 1205.04 586.445 1224.17C663.87 1231.84 741.937 1235.9 819.49 1227.76C911.012 1218.2 990.436 1182.96 1078.5 1161.44C1225.58 1125.5 1370.8 1212.76 1515.19 1226.94C1578.57 1233.18 1641.31 1219.56 1704.54 1215.48C1779.3 1210.63 1850.62 1218.35 1923.18 1236.9" stroke="url(#paint2_linear_121_1830)" stroke-miterlimit="10"/>
<path d="M1 1199.27C199.574 1170.47 403.735 1174 602.463 1200.71C680.657 1211.2 758.903 1216.97 837.277 1204.81C878.052 1198.47 917.829 1187.83 956.734 1174.11C1009.63 1155.46 1058.4 1121.19 1110.87 1104.06C1258.11 1055.97 1397.84 1178.67 1537.46 1200.6C1601.54 1210.66 1660 1189.8 1723.12 1182.6C1793.42 1174.57 1857.44 1188.32 1923.21 1213.17" stroke="url(#paint3_linear_121_1830)" stroke-miterlimit="10"/>
<path d="M1 1166.34C195.397 1132.25 393.996 1142.92 587.701 1177.42C671.764 1192.39 755.956 1202.27 840.532 1185.09C947.917 1163.26 1027.11 1098.65 1125.42 1057.35C1284.86 990.386 1411.83 1152.84 1560.55 1177.54C1619.27 1187.29 1667.68 1162.41 1723.89 1151.56C1796.03 1137.63 1858.36 1158.13 1923.18 1189.45" stroke="url(#paint4_linear_121_1830)" stroke-miterlimit="10"/>
<path d="M1 1131.99C195.55 1092.03 386.384 1115.68 578.064 1158.95C662.384 1177.98 746.934 1188.39 831.997 1167.34C876.156 1156.41 917.88 1138.58 958.169 1117.65C1018.47 1086.34 1071.83 1034.01 1132.34 1006.03C1294.99 930.804 1411.03 1120.5 1555.71 1152C1621.55 1166.34 1665.35 1134.84 1726.07 1119.37C1798.24 1101.01 1861.16 1130.63 1923.18 1165.69" stroke="url(#paint5_linear_121_1830)" stroke-miterlimit="10"/>
<path d="M1 1096.78C191.706 1051.46 366.624 1089.29 551.41 1139.64C637.216 1163 722.971 1177.13 810.34 1152.9C856.575 1140.07 899.606 1118.94 940.921 1094.85C1005.66 1057.12 1061.51 996.978 1126.68 962.762C1297.86 872.915 1399.37 1093.21 1547.3 1128.3C1616.84 1144.79 1657.56 1106.98 1719.48 1087.47C1794.42 1063.84 1861.03 1103.09 1923.15 1141.94" stroke="url(#paint6_linear_121_1830)" stroke-miterlimit="10"/>
<path d="M1 1061.18C183.12 1010.96 337.792 1060.56 510.378 1117.35C595.979 1145.51 681.349 1166.59 770.564 1143.51C906.296 1108.4 994.767 1001.54 1108.84 929.547C1294.09 812.666 1376.64 1072.95 1538.26 1106.09C1608.22 1120.45 1647.8 1075.8 1709.64 1054.23C1787.96 1026.91 1860.26 1076.1 1923.18 1118.14" stroke="url(#paint7_linear_121_1830)" stroke-miterlimit="10"/>
<path d="M1 1025.76C177.712 968.636 313.393 1032.83 475.676 1096.47C563.302 1130.81 651.927 1158.67 745.294 1130.27C883.717 1088.18 973.931 973.535 1088.36 893.793C1282.91 758.239 1346.78 1047.89 1513.88 1081.95C1585 1096.44 1628.91 1046.89 1689.8 1022.7C1775.81 988.539 1854.78 1046.68 1923.18 1094.47" stroke="url(#paint8_linear_121_1830)" stroke-miterlimit="10"/>
<path d="M1 990.976C80.1682 960.787 157.44 953.836 239.325 978.203C314.93 1000.7 379.849 1046.12 451.2 1078.26C535.469 1116.22 622.044 1149.51 714.257 1119.27C860.727 1071.23 948.891 940.781 1068.43 854.242C1261.98 714.098 1318.28 1012.83 1477.18 1053.12C1557.63 1073.51 1604.25 1014.39 1672.66 987.359C1765.1 950.81 1851.47 1019.04 1923.18 1070.72" stroke="url(#paint9_linear_121_1830)" stroke-miterlimit="10"/>
<path d="M1 957.402C72.2488 925.11 143.241 915.056 218.488 940.294C292.608 965.147 352.81 1017.47 421.086 1053.69C500.511 1095.83 582.242 1138.12 673.635 1111.14C826.871 1065.95 923.057 919.442 1041.98 824.644C1244.75 662.98 1278.4 988.077 1444.53 1025.5C1529.77 1044.71 1582.85 976.151 1656.05 949.425C1754.52 913.491 1848.96 992.002 1923.15 1046.94" stroke="url(#paint10_linear_121_1830)" stroke-miterlimit="10"/>
<path d="M1 925.52C165.667 837.032 264.569 941.705 398.686 1026.29C474.856 1074.33 556.869 1129.91 650.21 1098.98C801.37 1048.89 900.811 898.281 1015.4 798.123C1089.36 733.488 1160.18 718.484 1223.53 800.252C1278.48 871.145 1313.77 973.252 1411.55 993.797C1496.69 1011.67 1556.81 941.499 1629.86 912.901C1737.34 870.786 1843.76 962.865 1923.18 1023.22" stroke="url(#paint11_linear_121_1830)" stroke-miterlimit="10"/>
<path d="M1 895.87C160.49 795.558 259.879 899.718 385.667 994.259C452.764 1044.68 528.728 1114.53 619.378 1090.85C674.558 1076.44 723.484 1035.48 765.618 999.312C846.606 929.829 913.831 847.856 990.718 774.449C1064.43 704.069 1137.09 676.369 1200.29 769.217C1247.39 838.417 1283.53 945.321 1378.23 960.428C1468.26 974.791 1534.16 897.486 1613.12 870.76C1727.02 832.185 1841.83 935.857 1923.18 999.414" stroke="url(#paint12_linear_121_1830)" stroke-miterlimit="10"/>
<path d="M1 868.99C63.1761 824.233 131.785 796.148 207.545 823.413C275 847.702 327.437 904.129 379.285 951.143C437.719 1004.13 511.531 1098.21 601.233 1079.72C651.722 1069.31 696.137 1030.63 733.863 997.696C817.132 924.982 890.124 840.751 964.986 759.727C1035.06 683.858 1112.71 629.278 1178.07 734.873C1222.07 805.946 1256.23 918.364 1356.03 922.314C1444.61 925.828 1511.17 855.038 1591 828.927C1713.46 788.89 1837.68 906.566 1923.21 975.689" stroke="url(#paint13_linear_121_1830)" stroke-miterlimit="10"/>
<path d="M1 844.316C64.8164 794.558 135.911 761.522 216.515 790.198C284.534 814.384 340.867 869.529 391.151 919.108C443.435 970.688 513.607 1072 599.208 1054.71C647.109 1045.04 689.243 1006.29 724.56 974.843C805.317 902.898 877.437 820.874 950.403 741.286C1017.22 668.418 1095.69 601.988 1161.97 707.096C1205.34 775.86 1238.27 885.611 1336.2 886.97C1424 888.176 1497.23 824.387 1579.21 802.535C1706.82 768.499 1831.53 880.071 1923.18 951.348" stroke="url(#paint14_linear_121_1830)" stroke-miterlimit="10"/>
<path d="M1 816.821C71.4031 761.394 146.522 731.59 232.584 770.063C303.756 801.894 366.086 862.117 421.163 915.44C470.576 963.301 531.804 1044.07 609.716 1018.91C657.258 1003.54 698.598 962.506 734.068 929.521C805.163 863.425 871.235 791.839 938.306 721.716C1002.23 654.85 1079.78 589.804 1148.49 683.037C1197.37 749.365 1228.48 855.448 1326.05 860.296C1412.96 864.605 1496.99 807.228 1580.78 791.839C1707.49 768.55 1825.33 855.961 1923.21 923.314" stroke="url(#paint15_linear_121_1830)" stroke-miterlimit="10"/>
<path d="M1 786.274C76.7083 728.461 153.852 703.043 242.298 748.698C310.061 783.657 372.596 839.956 428.339 891.331C480.289 939.217 544.08 1021.73 622.582 985.205C663.563 966.148 697.291 929.855 729.481 899.153C797.193 834.519 861.24 765.985 927.363 699.76C995.767 631.253 1073.27 578.134 1144.24 669.213C1193.08 731.924 1228.27 830.646 1320.9 834.75C1406.11 838.546 1490.77 797.687 1573.93 784.093C1702.31 763.113 1816.28 828.62 1923.21 891.741" stroke="url(#paint16_linear_121_1830)" stroke-miterlimit="10"/>
<path d="M1 753.238C88.3182 690.194 171.613 675.933 264.595 734.591C331.41 776.732 393.176 833.826 452.969 885.303C502.894 928.29 559.047 995.772 628.912 956.683C666.331 935.754 697.47 898.435 727.277 868.247C790.734 803.945 852.526 738.08 917.829 675.625C985.489 610.913 1062.94 564.207 1134.96 645.975C1188.73 707.019 1225.97 804.382 1318.36 813.205C1399.78 820.976 1488.51 789.121 1568.6 776.707C1696.59 756.88 1809.21 802.15 1923.15 857.423" stroke="url(#paint17_linear_121_1830)" stroke-miterlimit="10"/>
<path d="M1 718.33C95.5969 654.644 182.582 647.822 277.384 714.457C348.915 764.729 413.192 828.26 481.212 883.354C527.985 921.211 579.73 973.124 638.19 929.624C676.839 900.872 708.388 857.551 740.476 822.259C794.732 762.625 850.347 703.787 910.038 649.566C983.183 583.11 1062.5 551.716 1136.16 631.817C1190.09 690.45 1231.4 781.964 1320 791.89C1403.86 801.278 1494.53 779.246 1577.6 767.832C1699.75 751.058 1808.46 778.374 1923.18 820.874" stroke="url(#paint18_linear_121_1830)" stroke-miterlimit="10"/>
<path d="M1 682.088C108.847 614.607 200.522 621.788 299.527 700.889C374.646 760.907 438.668 830.748 516.964 887.381C570.683 926.213 609.409 948.142 658.437 894.024C741.757 802.047 809.238 697.221 906.86 617.915C978.518 559.719 1057.35 538.02 1128.76 605.758C1189.09 662.98 1229.68 750.827 1316.77 771.449C1397.17 790.454 1498.07 771.705 1578.9 760.676C1698.21 744.389 1805.88 753.956 1923.21 782.888" stroke="url(#paint19_linear_121_1830)" stroke-miterlimit="10"/>
<path d="M1 645.129C121.764 574.62 220.103 597.525 321.927 687.782C394.868 752.443 455.532 827.311 538.313 880.43C599.08 919.442 631.065 926.341 672.635 864.22C738.502 765.806 804.805 665.212 900.76 592.626C978.339 533.916 1056.94 520.733 1132.75 588.419C1195.88 644.795 1240.81 735.489 1330.07 755.444C1409.24 773.141 1501.63 764.729 1581.44 753.854C1697.31 738.054 1806.16 730.924 1923.21 743.979" stroke="url(#paint20_linear_121_1830)" stroke-miterlimit="10"/>
<path d="M1 608.041C132.631 535.327 235.609 571.158 339.944 670.649C413.782 741.055 474.651 827.055 565.557 876.967C633.038 914.03 656.72 894.768 688.91 831.236C740.117 730.206 804.881 628.098 899.735 562.283C980.031 506.549 1061.25 504.83 1136.68 568.875C1202.47 624.764 1250.39 713.098 1338.53 737.874C1527.57 791.018 1733.29 711.585 1923.21 704.993" stroke="url(#paint21_linear_121_1830)" stroke-miterlimit="10"/>
<path d="M1 571.389C66.4823 536.481 128.043 515.757 201.317 541.175C261.93 562.207 311.573 606.348 356.04 651.31C429.39 725.537 492.104 825.413 589.828 869.529C663.127 902.616 680.478 858.039 705.21 795.84C745.525 694.374 806.394 590.42 901.503 531.018C1108.79 401.517 1183.6 663.545 1348.53 720.356C1541.13 786.71 1734.86 702.992 1923.21 666.494" stroke="url(#paint22_linear_121_1830)" stroke-miterlimit="10"/>
<path d="M1 535.763C69.3015 499.598 132.246 479.438 206.853 506.908C269.439 529.94 320.031 577.006 365.369 624.687C436.669 699.658 510.403 829.44 616.764 859.295C691.217 880.199 702.955 810.486 721.818 754.366C754.828 656.132 811.724 547.818 906.911 495.853C1104.51 387.975 1204.03 630.535 1353.22 699.094C1548.94 789.043 1738.47 696.811 1923.18 629.15" stroke="url(#paint23_linear_121_1830)" stroke-miterlimit="10"/>
<path d="M1 501.778C69.9678 464.228 132.093 443.838 208.006 470.435C270.951 492.493 322.389 541.713 367.137 589.676C439.744 667.52 517.58 815.385 630.476 837.443C707.209 852.447 717.973 775.732 734.735 718.125C763.516 619.3 815.338 509.909 914.805 463.946C1112.69 372.509 1219.41 605.373 1365.36 680.678C1441.35 719.869 1539.74 739.952 1624.4 726.307C1731.71 709.02 1829.84 645.385 1923.21 593.754" stroke="url(#paint24_linear_121_1830)" stroke-miterlimit="10"/>
<path d="M1 469.974C74.4529 427.474 145.445 402.979 226.766 439.708C287.789 467.281 336.203 517.963 379.951 567.157C445.511 640.871 528.139 796.174 638.421 807.818C721.433 816.59 731.915 725.871 749.702 664.622C777.202 569.952 826.717 468.461 926.389 431.937C1122.78 359.941 1236.35 575.826 1378.05 660.185C1449.66 702.813 1543.25 732.001 1627.01 721.562C1739.21 707.558 1836.32 626.303 1923.15 560.77" stroke="url(#paint25_linear_121_1830)" stroke-miterlimit="10"/>
<path d="M1 440.965C70.3523 396.747 138.628 365.968 220.564 399.081C286.226 425.627 338.509 481.977 383.616 534.634C448.099 609.913 529.19 764.472 643.751 767.191C725.431 769.115 740.553 677.087 759.826 615.633C789.632 520.681 836.764 428.577 941.305 401.723C1141.49 350.271 1252.65 547.664 1395.89 642.359C1466.01 688.731 1559.53 726.974 1644.95 714.637C1756.67 698.478 1846.42 605.553 1923.18 531.018" stroke="url(#paint26_linear_121_1830)" stroke-miterlimit="10"/>
<path d="M1 415.342C64.6626 369.149 130.786 330.445 211.748 357.581C274.847 378.716 324.541 430.475 367.009 479.566C436.566 559.949 506.533 702.941 626.272 712.072C717.307 718.997 740.963 630.458 767.155 560.411C802.882 464.844 852.68 383.922 962.09 369.123C1156.05 342.884 1267.82 509.781 1402.58 614.838C1470.14 667.494 1561.61 717.92 1650 709.302C1767.25 697.862 1853.55 588.753 1923.18 505.112" stroke="url(#paint27_linear_121_1830)" stroke-miterlimit="10"/>
<path d="M1 395.131C64.3551 350.887 129.684 314.466 209.031 340.32C270.823 360.454 320.005 409.93 361.96 457.534C429.544 534.172 501.074 681.293 617.379 685.32C707.312 688.424 738.092 608.708 770.334 538.635C811.673 448.839 867.621 366.635 973.726 352.298C1160.89 327.008 1277.81 482.926 1410.65 582.648C1475.82 631.561 1567.76 681.319 1651.46 679.677C1768.48 677.369 1855.16 565.977 1923.18 484.67" stroke="url(#paint28_linear_121_1830)" stroke-miterlimit="10"/>
<path d="M1 381.306C63.3555 338.601 127.736 303.18 205.52 326.726C265.62 344.911 314.085 391.232 355.373 436.579C421.881 509.652 493.104 655.234 605.641 655.927C693.882 656.465 731.454 586.188 769.975 517.732C817.03 434.117 878.796 353.888 981.133 339.832C1161.54 315.081 1283.4 454.918 1416.31 547.997C1480.85 593.19 1571.78 643.615 1651.64 650.746C1768.07 661.133 1856.16 548.638 1923.15 470.256" stroke="url(#paint29_linear_121_1830)" stroke-miterlimit="10"/>
<path d="M1 372.74C60.8183 331.83 124.763 296.46 199.472 315.44C263.16 331.599 313.752 379.793 357.116 426.448C423.034 497.367 489.131 629.098 599.259 624.199C682.58 620.506 725.047 557.205 768.565 494.904C822.002 418.369 886.51 346.603 984.362 332.702C1162.05 307.438 1286.53 428.32 1424.77 514.551C1488.64 554.409 1569.68 601.68 1643.26 620.737C1762.54 651.618 1853.37 539.764 1923.18 460.766" stroke="url(#paint30_linear_121_1830)" stroke-miterlimit="10"/>
<path d="M1 368.328C59.178 328.034 121.764 291.895 195.243 306.848C256.419 319.313 306.14 362.198 348.761 405.262C415.601 472.769 477.829 594.011 584.523 589.266C665.459 585.675 714.129 532.377 763.644 474.95C822.976 406.16 891.456 340.807 985.541 327.111C1155.72 302.334 1286.12 398.978 1425.98 475.873C1495.38 514.038 1568.37 560.693 1641.23 591.574C1758.54 641.307 1850.75 533.685 1923.15 455.174" stroke="url(#paint31_linear_121_1830)" stroke-miterlimit="10"/>
<path d="M1 366.969C123.404 280.122 229.278 280.558 340.431 383.538C408.682 446.762 466.68 555.281 569.632 551.588C647.929 548.767 702.365 505.574 757.545 454.867C822.565 395.131 894.199 337.344 984.541 323.904C1146.7 299.769 1283.99 369.662 1425.1 435.964C1502.79 472.462 1565.63 518.245 1637.98 562.642C1752.23 632.74 1845.5 532.659 1923.21 452.507" stroke="url(#paint32_linear_121_1830)" stroke-miterlimit="10"/>
<path d="M1 367.559C114.921 284.046 219.77 267.836 332.589 360.787C402.633 418.497 456.582 513.038 555.357 511.089C719.819 507.857 821.105 346.655 981.85 322.34C1135.83 299.051 1280.48 340.345 1422.11 395.054C1508.68 428.5 1563.19 475.873 1633.42 533.659C1743.57 624.302 1837.19 535.634 1923.18 451.584" stroke="url(#paint33_linear_121_1830)" stroke-miterlimit="10"/>
<path d="M1 368.995C105.182 289.535 209.211 255.884 323.004 334.6C393.355 383.256 444.947 464.562 535.853 467.691C699.315 473.359 820.951 345.219 977.826 320.724C1120.96 298.384 1273.94 310.772 1412.03 352.221C1510.35 381.742 1560.55 435.425 1629.86 507.087C1655.74 533.865 1684.86 561.745 1723.73 565.951C1801.08 574.287 1873.43 497.572 1923.18 451.507" stroke="url(#paint34_linear_121_1830)" stroke-miterlimit="10"/>
<path d="M1 370.175C97.9291 293.28 201.471 244.419 317.801 308.797C389.767 348.63 439.821 416.24 525.653 421.241C685.347 430.552 819.874 344.911 973.495 321.032C1111.3 299.615 1267.46 281.764 1405.09 311.311C1510.96 334.036 1558.58 397.414 1622.76 478.412C1647.33 509.447 1675.17 545.15 1715.79 554.897C1794.27 573.723 1871.69 496.341 1923.15 451.224" stroke="url(#paint35_linear_121_1830)" stroke-miterlimit="10"/>
<path d="M1 369.969C95.5969 291.997 200.727 231.646 322.517 283.662C388.922 312.029 438.334 364.019 512.223 371.252C671.021 386.821 815.415 344.577 970.471 321.801C1052.18 309.798 1132.68 297.897 1213.69 281.558C1276.66 268.862 1337.86 262.271 1401.89 271.453C1512.5 287.304 1559.22 366.404 1616.58 452.584C1639.54 487.081 1667.15 529.915 1708.87 543.637C1788.83 569.952 1868.59 495.058 1923.18 449.583" stroke="url(#paint36_linear_121_1830)" stroke-miterlimit="10"/>
<path d="M1 367.302C92.1113 289.792 197.293 217.975 321.825 251.19C387.845 268.811 441.128 309.798 509.737 318.467C666.254 338.216 811.263 342.705 967.652 320.904C1050.46 309.362 1128.09 292.357 1207.08 264.964C1267.9 243.88 1326.25 226.593 1391.45 231.21C1507.55 239.418 1554.71 332.856 1607.12 423.601C1629.45 462.254 1656.41 511.986 1699.67 530.787C1781.17 566.208 1865.16 491.775 1923.23 445.684" stroke="url(#paint37_linear_121_1830)" stroke-miterlimit="10"/>
<path d="M1 361.069C90.8299 282.841 195.602 202.945 321.62 215.051C389.28 221.54 451.2 253.55 518.374 263.45C671.918 286.098 806.983 337.78 964.704 318.518C1048.15 308.31 1123.14 286.509 1198.34 249.215C1254.98 221.13 1308.95 192.711 1373.85 191.891C1499.99 190.352 1547.64 300.615 1598.43 397.875C1620.37 439.888 1646.75 494.545 1691.44 517.065C1774.38 558.872 1861.82 485.235 1923.18 438.375" stroke="url(#paint38_linear_121_1830)" stroke-miterlimit="10"/>
<path d="M1 350.169C92.6752 269.401 197.729 184.299 324.977 175.886C393.586 171.346 465.809 191.762 532.573 205.613C682.733 236.75 807.752 331.471 967.216 314.235C1049.2 305.386 1121.61 278.686 1190.34 233.647C1245.8 197.302 1296.63 158.342 1365.49 154.315C1494.38 146.8 1541.59 274.864 1588.62 372.047C1610.97 418.189 1636.62 474.001 1682.7 501.316C1765.46 550.357 1860.88 472.872 1923.18 426.704" stroke="url(#paint39_linear_121_1830)" stroke-miterlimit="10"/>
<path d="M1 333.446C157.876 195.558 323.209 89.2445 536.776 140.901C688.807 177.681 805.907 320.724 970.855 307.233C1054.43 300.385 1124.83 266.81 1188.42 213.641C1238.22 172.013 1282.58 126.358 1350.52 118.997C1480.1 104.967 1527.6 236.135 1572.01 333.189C1596.26 386.154 1622.5 452.404 1675.12 483.952C1759.95 534.814 1858.47 456.662 1923.15 409.571" stroke="url(#paint40_linear_121_1830)" stroke-miterlimit="10"/>
<path d="M1 310.721C151.955 181.657 346.147 38.8961 557.33 98.0933C705.569 139.644 817.568 297.871 980.492 289.51C1061.97 285.329 1131.19 246.266 1188.7 190.916C1234.32 147.031 1275.1 97.529 1342.19 90.0909C1466.5 76.2663 1517.09 205.741 1560.89 297.794C1587.11 352.862 1614.58 420.267 1668.5 454.148C1754.85 508.395 1854.57 434.322 1923.15 386.513" stroke="url(#paint41_linear_121_1830)" stroke-miterlimit="10"/>
<path d="M1 286.97C152.493 163.395 351.375 26.9438 559.227 78.1899C712.002 115.842 833.022 272.863 998.432 262.117C1073.4 257.243 1136.21 220.797 1188.86 169.397C1230.86 128.384 1267.69 81.6525 1329.02 71.6239C1451.35 51.6179 1511.78 184.35 1559.25 272.376C1586.52 322.904 1616.09 381.46 1665.58 414.06C1752.13 471.077 1849.52 407.955 1923.18 360.505" stroke="url(#paint42_linear_121_1830)" stroke-miterlimit="10"/>
<path d="M1 263.22C155.364 144.004 363.933 12.1702 570.247 64.6987C720.254 102.89 848.656 246.214 1010.53 237.417C1079.55 233.672 1139.98 196.866 1188.24 150.032C1226.92 112.508 1261.34 67.8022 1316.9 56.0294C1437.3 30.5346 1506.55 164.293 1558.99 247.805C1590.51 297.999 1623.47 353.247 1677.6 381.64C1763.25 426.55 1848.45 376.972 1923.18 332.574" stroke="url(#paint43_linear_121_1830)" stroke-miterlimit="10"/>
<path d="M1 239.469C160.31 123.973 373.954 2.6802 580.063 53.7724C728.635 90.6039 862.496 223.31 1021.88 212.41C1086.08 208.024 1140.96 175.732 1186.83 132.565C1225.4 96.2723 1260.05 52.0283 1315.16 41.8458C1429.64 20.6599 1504.22 146.262 1560.09 224.08C1592.16 268.734 1626.14 314.286 1675.01 341.346C1760.05 388.385 1845.75 345.321 1923.18 303.052" stroke="url(#paint44_linear_121_1830)" stroke-miterlimit="10"/>
<path d="M1 215.718C161.412 107.609 368.393 3.2444 569.53 41.1788C725.201 70.5466 865.879 200.739 1029.37 189.274C1091.36 184.914 1144.16 153.264 1189.32 112.585C1226.25 79.2928 1259.8 40.9223 1310.98 31.2528C1416.93 11.2211 1495.82 119.407 1554.04 190.095C1592.16 236.391 1633.8 287.201 1690.83 310.875C1771.46 344.346 1850.83 308.592 1923.21 272.325" stroke="url(#paint45_linear_121_1830)" stroke-miterlimit="10"/>
<path d="M1 191.968C165.41 90.2448 376.671 -3.09079 575.937 35.0488C727.84 64.1344 875.438 179.656 1034.31 167.935C1149.69 159.419 1200.06 46.2316 1304.06 23.3017C1408.63 0.269187 1493.77 102.197 1558.04 168.166C1596.69 207.844 1637.03 249.523 1689.21 271.068C1770 304.411 1848.39 274.838 1923.15 240.726" stroke="url(#paint46_linear_121_1830)" stroke-miterlimit="10"/>
<path d="M1 168.217C169.742 73.804 377.004 -2.83426 574.399 28.9445C727.533 53.5929 877.847 158.316 1036.41 146.441C1145.34 138.285 1203.57 36.5878 1304.11 16.8639C1402.14 -2.34694 1486.49 78.5747 1553.81 137.695C1595.38 174.219 1638.16 212.538 1690.52 232.826C1770.71 263.912 1847.42 240.059 1923.21 208.691" stroke="url(#paint47_linear_121_1830)" stroke-miterlimit="10"/>
<path d="M1 144.466C172.279 59.5177 377.235 -3.21903 571.067 24.4303C724.304 46.283 878.181 136.874 1035.44 125.46C1139.96 117.868 1207.57 29.637 1306.26 11.6829C1403.63 -6.04038 1492.3 67.084 1565.12 120.51C1604.66 149.519 1645.87 178.861 1692.52 195.379C1772.92 223.849 1846.29 205.074 1923.18 176.553" stroke="url(#paint48_linear_121_1830)" stroke-miterlimit="10"/>
<path d="M1 120.716C174.099 46.6421 376.184 -2.96251 566.198 20.5317C719.69 39.5117 875.003 115.252 1031.42 104.89C1134.06 98.0933 1212.54 24.302 1311.57 8.22032C1402.96 -6.60463 1489.13 48.5914 1563.91 93.5279C1685.47 166.575 1785.78 189.634 1923.18 144.62" stroke="url(#paint49_linear_121_1830)" stroke-miterlimit="10"/>
<path d="M1 96.9647C175.124 35.0744 366.804 0.987308 552.23 16.6587C708.926 29.919 864.751 91.835 1023.06 83.8839C1129.24 78.549 1220.23 15.6071 1324.74 4.93721C1411.09 -3.88595 1492.59 35.3822 1568.55 71.2904C1690.39 128.923 1790.83 150.673 1923.18 113.354" stroke="url(#paint50_linear_121_1830)" stroke-miterlimit="10"/>
<path d="M1 73.2141C178.251 24.0199 367.496 1.11564 551.538 14.1708C705.133 25.0715 859.318 70.8544 1013.94 64.2114C1122.53 59.5434 1223.87 13.3244 1331.61 3.8344C1422.29 -4.14234 1507.43 27.5081 1591.75 56.6964C1705 95.9132 1804.8 110.507 1923.18 83.1145" stroke="url(#paint51_linear_121_1830)" stroke-miterlimit="10"/>
<path d="M1 49.489C175.662 15.6327 356.603 2.26975 534.495 10.2208C689.397 17.146 844.12 47.514 999.457 43.4103C1118.38 40.2811 1234.4 8.55368 1353.06 2.37234C1437.74 -2.03923 1519.6 17.4794 1601.54 36.4338C1710.66 61.6721 1811.82 73.4192 1923.18 54.2084" stroke="url(#paint52_linear_121_1830)" stroke-miterlimit="10"/>
<path d="M1 25.7383C174.278 7.78425 349.325 2.26978 523.5 6.19403C676.634 9.65661 829.69 24.9176 982.952 22.8657C1113.3 21.1216 1242.98 4.809 1373.28 1.57727C1558.09 -3.01385 1737.81 45.7187 1923.18 27.0464" stroke="url(#paint53_linear_121_1830)" stroke-miterlimit="10"/>
<path d="M1 1.98764C641.701 -1.55188 1282.48 5.86059 1923.18 1.98764" stroke="url(#paint54_linear_121_1830)" stroke-miterlimit="10"/>
<defs>
<linearGradient id="paint0_linear_121_1830" x1="962.09" y1="1281.89" x2="962.09" y2="1284.4" gradientUnits="userSpaceOnUse">
<stop stop-color="#333333"/>
<stop offset="1" stop-color="#333333" stop-opacity="0"/>
</linearGradient>
<linearGradient id="paint1_linear_121_1830" x1="962.09" y1="1214.77" x2="962.09" y2="1260.65" gradientUnits="userSpaceOnUse">
<stop stop-color="#333333"/>
<stop offset="1" stop-color="#333333" stop-opacity="0"/>
</linearGradient>
<linearGradient id="paint2_linear_121_1830" x1="962.09" y1="1152.83" x2="962.09" y2="1236.9" gradientUnits="userSpaceOnUse">
<stop stop-color="#333333"/>
<stop offset="1" stop-color="#333333" stop-opacity="0"/>
</linearGradient>
<linearGradient id="paint3_linear_121_1830" x1="962.103" y1="1092.98" x2="962.103" y2="1213.17" gradientUnits="userSpaceOnUse">
<stop stop-color="#333333"/>
<stop offset="1" stop-color="#333333" stop-opacity="0"/>
</linearGradient>
<linearGradient id="paint4_linear_121_1830" x1="962.09" y1="1041.29" x2="962.09" y2="1194.16" gradientUnits="userSpaceOnUse">
<stop stop-color="#333333"/>
<stop offset="1" stop-color="#333333" stop-opacity="0"/>
</linearGradient>
<linearGradient id="paint5_linear_121_1830" x1="962.09" y1="988.529" x2="962.09" y2="1178.97" gradientUnits="userSpaceOnUse">
<stop stop-color="#333333"/>
<stop offset="1" stop-color="#333333" stop-opacity="0"/>
</linearGradient>
<linearGradient id="paint6_linear_121_1830" x1="962.077" y1="941.39" x2="962.077" y2="1165.52" gradientUnits="userSpaceOnUse">
<stop stop-color="#333333"/>
<stop offset="1" stop-color="#333333" stop-opacity="0"/>
</linearGradient>
<linearGradient id="paint7_linear_121_1830" x1="962.09" y1="899.566" x2="962.09" y2="1153.36" gradientUnits="userSpaceOnUse">
<stop stop-color="#333333"/>
<stop offset="1" stop-color="#333333" stop-opacity="0"/>
</linearGradient>
<linearGradient id="paint8_linear_121_1830" x1="962.09" y1="857.902" x2="962.09" y2="1142" gradientUnits="userSpaceOnUse">
<stop stop-color="#333333"/>
<stop offset="1" stop-color="#333333" stop-opacity="0"/>
</linearGradient>
<linearGradient id="paint9_linear_121_1830" x1="962.09" y1="817.102" x2="962.09" y2="1131.03" gradientUnits="userSpaceOnUse">
<stop stop-color="#333333"/>
<stop offset="1" stop-color="#333333" stop-opacity="0"/>
</linearGradient>
<linearGradient id="paint10_linear_121_1830" x1="962.077" y1="779.852" x2="962.077" y2="1119.63" gradientUnits="userSpaceOnUse">
<stop stop-color="#333333"/>
<stop offset="1" stop-color="#333333" stop-opacity="0"/>
</linearGradient>
<linearGradient id="paint11_linear_121_1830" x1="962.09" y1="744.181" x2="962.09" y2="1107.91" gradientUnits="userSpaceOnUse">
<stop stop-color="#333333"/>
<stop offset="1" stop-color="#333333" stop-opacity="0"/>
</linearGradient>
<linearGradient id="paint12_linear_121_1830" x1="962.09" y1="710.009" x2="962.09" y2="1095.61" gradientUnits="userSpaceOnUse">
<stop stop-color="#333333"/>
<stop offset="1" stop-color="#333333" stop-opacity="0"/>
</linearGradient>
<linearGradient id="paint13_linear_121_1830" x1="962.103" y1="676.154" x2="962.103" y2="1082.09" gradientUnits="userSpaceOnUse">
<stop stop-color="#333333"/>
<stop offset="1" stop-color="#333333" stop-opacity="0"/>
</linearGradient>
<linearGradient id="paint14_linear_121_1830" x1="962.09" y1="652.51" x2="962.09" y2="1056.67" gradientUnits="userSpaceOnUse">
<stop stop-color="#333333"/>
<stop offset="1" stop-color="#333333" stop-opacity="0"/>
</linearGradient>
<linearGradient id="paint15_linear_121_1830" x1="962.103" y1="636.583" x2="962.103" y2="1023.65" gradientUnits="userSpaceOnUse">
<stop stop-color="#333333"/>
<stop offset="1" stop-color="#333333" stop-opacity="0"/>
</linearGradient>
<linearGradient id="paint16_linear_121_1830" x1="962.103" y1="620.781" x2="962.103" y2="994.268" gradientUnits="userSpaceOnUse">
<stop stop-color="#333333"/>
<stop offset="1" stop-color="#333333" stop-opacity="0"/>
</linearGradient>
<linearGradient id="paint17_linear_121_1830" x1="962.077" y1="602.353" x2="962.077" y2="968.424" gradientUnits="userSpaceOnUse">
<stop stop-color="#333333"/>
<stop offset="1" stop-color="#333333" stop-opacity="0"/>
</linearGradient>
<linearGradient id="paint18_linear_121_1830" x1="962.09" y1="584.23" x2="962.09" y2="946.147" gradientUnits="userSpaceOnUse">
<stop stop-color="#333333"/>
<stop offset="1" stop-color="#333333" stop-opacity="0"/>
</linearGradient>
<linearGradient id="paint19_linear_121_1830" x1="962.103" y1="563.773" x2="962.103" y2="926.357" gradientUnits="userSpaceOnUse">
<stop stop-color="#333333"/>
<stop offset="1" stop-color="#333333" stop-opacity="0"/>
</linearGradient>
<linearGradient id="paint20_linear_121_1830" x1="962.103" y1="542.901" x2="962.103" y2="910.33" gradientUnits="userSpaceOnUse">
<stop stop-color="#333333"/>
<stop offset="1" stop-color="#333333" stop-opacity="0"/>
</linearGradient>
<linearGradient id="paint21_linear_121_1830" x1="962.103" y1="520.643" x2="962.103" y2="895.712" gradientUnits="userSpaceOnUse">
<stop stop-color="#333333"/>
<stop offset="1" stop-color="#333333" stop-opacity="0"/>
</linearGradient>
<linearGradient id="paint22_linear_121_1830" x1="962.103" y1="495.498" x2="962.103" y2="880.768" gradientUnits="userSpaceOnUse">
<stop stop-color="#333333"/>
<stop offset="1" stop-color="#333333" stop-opacity="0"/>
</linearGradient>
<linearGradient id="paint23_linear_121_1830" x1="962.09" y1="468.598" x2="962.09" y2="863.09" gradientUnits="userSpaceOnUse">
<stop stop-color="#333333"/>
<stop offset="1" stop-color="#333333" stop-opacity="0"/>
</linearGradient>
<linearGradient id="paint24_linear_121_1830" x1="962.103" y1="442.989" x2="962.103" y2="839.349" gradientUnits="userSpaceOnUse">
<stop stop-color="#333333"/>
<stop offset="1" stop-color="#333333" stop-opacity="0"/>
</linearGradient>
<linearGradient id="paint25_linear_121_1830" x1="962.077" y1="417.475" x2="962.077" y2="808.41" gradientUnits="userSpaceOnUse">
<stop stop-color="#333333"/>
<stop offset="1" stop-color="#333333" stop-opacity="0"/>
</linearGradient>
<linearGradient id="paint26_linear_121_1830" x1="962.09" y1="385.161" x2="962.09" y2="767.221" gradientUnits="userSpaceOnUse">
<stop stop-color="#333333"/>
<stop offset="1" stop-color="#333333" stop-opacity="0"/>
</linearGradient>
<linearGradient id="paint27_linear_121_1830" x1="962.09" y1="348.596" x2="962.09" y2="712.454" gradientUnits="userSpaceOnUse">
<stop stop-color="#333333"/>
<stop offset="1" stop-color="#333333" stop-opacity="0"/>
</linearGradient>
<linearGradient id="paint28_linear_121_1830" x1="962.09" y1="331.701" x2="962.09" y2="685.408" gradientUnits="userSpaceOnUse">
<stop stop-color="#333333"/>
<stop offset="1" stop-color="#333333" stop-opacity="0"/>
</linearGradient>
<linearGradient id="paint29_linear_121_1830" x1="962.077" y1="319.197" x2="962.077" y2="655.93" gradientUnits="userSpaceOnUse">
<stop stop-color="#333333"/>
<stop offset="1" stop-color="#333333" stop-opacity="0"/>
</linearGradient>
<linearGradient id="paint30_linear_121_1830" x1="962.09" y1="310.173" x2="962.09" y2="625.996" gradientUnits="userSpaceOnUse">
<stop stop-color="#333333"/>
<stop offset="1" stop-color="#333333" stop-opacity="0"/>
</linearGradient>
<linearGradient id="paint31_linear_121_1830" x1="962.077" y1="303.401" x2="962.077" y2="604.227" gradientUnits="userSpaceOnUse">
<stop stop-color="#333333"/>
<stop offset="1" stop-color="#333333" stop-opacity="0"/>
</linearGradient>
<linearGradient id="paint32_linear_121_1830" x1="962.103" y1="303.925" x2="962.103" y2="586.336" gradientUnits="userSpaceOnUse">
<stop stop-color="#333333"/>
<stop offset="1" stop-color="#333333" stop-opacity="0"/>
</linearGradient>
<linearGradient id="paint33_linear_121_1830" x1="962.09" y1="297.72" x2="962.09" y2="571.791" gradientUnits="userSpaceOnUse">
<stop stop-color="#333333"/>
<stop offset="1" stop-color="#333333" stop-opacity="0"/>
</linearGradient>
<linearGradient id="paint34_linear_121_1830" x1="962.09" y1="289.815" x2="962.09" y2="566.578" gradientUnits="userSpaceOnUse">
<stop stop-color="#333333"/>
<stop offset="1" stop-color="#333333" stop-opacity="0"/>
</linearGradient>
<linearGradient id="paint35_linear_121_1830" x1="962.077" y1="278.986" x2="962.077" y2="557.793" gradientUnits="userSpaceOnUse">
<stop stop-color="#333333"/>
<stop offset="1" stop-color="#333333" stop-opacity="0"/>
</linearGradient>
<linearGradient id="paint36_linear_121_1830" x1="962.09" y1="264.212" x2="962.09" y2="549.099" gradientUnits="userSpaceOnUse">
<stop stop-color="#333333"/>
<stop offset="1" stop-color="#333333" stop-opacity="0"/>
</linearGradient>
<linearGradient id="paint37_linear_121_1830" x1="962.116" y1="230.458" x2="962.116" y2="540.043" gradientUnits="userSpaceOnUse">
<stop stop-color="#333333"/>
<stop offset="1" stop-color="#333333" stop-opacity="0"/>
</linearGradient>
<linearGradient id="paint38_linear_121_1830" x1="962.09" y1="191.875" x2="962.09" y2="529.449" gradientUnits="userSpaceOnUse">
<stop stop-color="#333333"/>
<stop offset="1" stop-color="#333333" stop-opacity="0"/>
</linearGradient>
<linearGradient id="paint39_linear_121_1830" x1="962.09" y1="153.999" x2="962.09" y2="517.001" gradientUnits="userSpaceOnUse">
<stop stop-color="#333333"/>
<stop offset="1" stop-color="#333333" stop-opacity="0"/>
</linearGradient>
<linearGradient id="paint40_linear_121_1830" x1="962.077" y1="117.959" x2="962.077" y2="500.52" gradientUnits="userSpaceOnUse">
<stop stop-color="#333333"/>
<stop offset="1" stop-color="#333333" stop-opacity="0"/>
</linearGradient>
<linearGradient id="paint41_linear_121_1830" x1="962.077" y1="84.3057" x2="962.077" y2="473.19" gradientUnits="userSpaceOnUse">
<stop stop-color="#333333"/>
<stop offset="1" stop-color="#333333" stop-opacity="0"/>
</linearGradient>
<linearGradient id="paint42_linear_121_1830" x1="962.09" y1="67.1204" x2="962.09" y2="436.68" gradientUnits="userSpaceOnUse">
<stop stop-color="#333333"/>
<stop offset="1" stop-color="#333333" stop-opacity="0"/>
</linearGradient>
<linearGradient id="paint43_linear_121_1830" x1="962.09" y1="52.8273" x2="962.09" y2="399.329" gradientUnits="userSpaceOnUse">
<stop stop-color="#333333"/>
<stop offset="1" stop-color="#333333" stop-opacity="0"/>
</linearGradient>
<linearGradient id="paint44_linear_121_1830" x1="962.09" y1="39.4735" x2="962.09" y2="361.824" gradientUnits="userSpaceOnUse">
<stop stop-color="#333333"/>
<stop offset="1" stop-color="#333333" stop-opacity="0"/>
</linearGradient>
<linearGradient id="paint45_linear_121_1830" x1="962.103" y1="28.8199" x2="962.103" y2="324.218" gradientUnits="userSpaceOnUse">
<stop stop-color="#333333"/>
<stop offset="1" stop-color="#333333" stop-opacity="0"/>
</linearGradient>
<linearGradient id="paint46_linear_121_1830" x1="962.077" y1="19.979" x2="962.077" y2="285.678" gradientUnits="userSpaceOnUse">
<stop stop-color="#333333"/>
<stop offset="1" stop-color="#333333" stop-opacity="0"/>
</linearGradient>
<linearGradient id="paint47_linear_121_1830" x1="962.103" y1="13.9813" x2="962.103" y2="247.357" gradientUnits="userSpaceOnUse">
<stop stop-color="#333333"/>
<stop offset="1" stop-color="#333333" stop-opacity="0"/>
</linearGradient>
<linearGradient id="paint48_linear_121_1830" x1="962.09" y1="8.97668" x2="962.09" y2="209.518" gradientUnits="userSpaceOnUse">
<stop stop-color="#333333"/>
<stop offset="1" stop-color="#333333" stop-opacity="0"/>
</linearGradient>
<linearGradient id="paint49_linear_121_1830" x1="962.09" y1="5.76111" x2="962.09" y2="167.645" gradientUnits="userSpaceOnUse">
<stop stop-color="#333333"/>
<stop offset="1" stop-color="#333333" stop-opacity="0"/>
</linearGradient>
<linearGradient id="paint50_linear_121_1830" x1="962.09" y1="3.68018" x2="962.09" y2="131.846" gradientUnits="userSpaceOnUse">
<stop stop-color="#333333"/>
<stop offset="1" stop-color="#333333" stop-opacity="0"/>
</linearGradient>
<linearGradient id="paint51_linear_121_1830" x1="962.09" y1="2.58337" x2="962.09" y2="97.1916" gradientUnits="userSpaceOnUse">
<stop stop-color="#333333"/>
<stop offset="1" stop-color="#333333" stop-opacity="0"/>
</linearGradient>
<linearGradient id="paint52_linear_121_1830" x1="962.09" y1="1.7417" x2="962.09" y2="63.7547" gradientUnits="userSpaceOnUse">
<stop stop-color="#333333"/>
<stop offset="1" stop-color="#333333" stop-opacity="0"/>
</linearGradient>
<linearGradient id="paint53_linear_121_1830" x1="962.09" y1="1.27039" x2="962.09" y2="31.3275" gradientUnits="userSpaceOnUse">
<stop stop-color="#333333"/>
<stop offset="1" stop-color="#333333" stop-opacity="0"/>
</linearGradient>
<linearGradient id="paint54_linear_121_1830" x1="962.09" y1="1" x2="962.09" y2="3.14196" gradientUnits="userSpaceOnUse">
<stop stop-color="#333333"/>
<stop offset="1" stop-color="#333333" stop-opacity="0"/>
</linearGradient>
</defs>
</svg>
